<svg id="Alien2" xmlns="http://www.w3.org/2000/svg" viewBox="0 0 248 169">
  <defs>
    <style>
      .cls-1 {
        fill: #06932e;
        stroke: #000;
        stroke-miterlimit: 10;
        stroke-width: 4px;
      }
    </style>
  </defs>
  <title>alien2_green</title>
  <polygon class="cls-1" points="2 41 2 107 62 107 62 121 42 121 42 141 2 141 2 165 47 165 47 146 87 146 87 125 101 125 101 145 146 145 146 125 160 125 160 145 199 145 199 167 246 167 246 140 205 140 205 119 185 119 185 104 246 104 246 41 225 41 225 21 166 21 166 2 81 2 81 22 22 22 22 42 2 41"/>
  <rect id="alienLeftEye" x="64" y="63" width="40" height="20"/>
  <rect id="alienRightEye" x="144" y="63" width="40" height="20"/>
  <rect id="alienNose" x="104" y="103" width="39" height="20"/>
</svg>
