<svg id="alien4" xmlns="http://www.w3.org/2000/svg" viewBox="0 0 164 144.51">
  <defs>
    <style>
      .cls-1 {
        fill: red;
      }

      .cls-1, .cls-2 {
        stroke: #000;
        stroke-miterlimit: 10;
        stroke-width: 4px;
      }

      .cls-2 {
        fill: #fff;
      }
    </style>
  </defs>
  <title>alien4_red</title>
  <polygon class="cls-1" points="37.5 2.01 37.5 20.01 21 20.01 21 37.51 4 37.51 4 71.51 56 71.51 56 88.51 107 88.51 107 71.51 158 71.51 158 36.51 141 36.51 141 19.51 124 19.51 124 2.51 37.5 2.01"/>
  <rect id="eyeLeft" class="cls-2" x="38" y="36.51" width="35" height="18"/>
  <rect id="eyeRight" class="cls-2" x="90" y="36.51" width="35" height="18"/>
  <g id="legLeft">
    <rect class="cls-1" x="38" y="88.51" width="18" height="18"/>
    <rect class="cls-1" x="20" y="106.51" width="18" height="18"/>
    <rect class="cls-1" x="2" y="124.51" width="18" height="18"/>
  </g>
  <g id="legRight">
    <rect class="cls-1" x="144" y="124.51" width="18" height="18"/>
    <rect class="cls-1" x="126" y="106.51" width="18" height="18"/>
    <rect class="cls-1" x="108" y="88.51" width="18" height="18"/>
  </g>
</svg>
