<svg id="alien5" xmlns="http://www.w3.org/2000/svg" viewBox="0 0 263 119.01">
  <defs>
    <style>
      .cls-1 {
        fill: #ff0;
        stroke: #000;
        stroke-miterlimit: 10;
        stroke-width: 4px;
      }
    </style>
  </defs>
  <title>alien5_yellow</title>
  <polygon class="cls-1" points="81.5 2.51 81.5 17.51 51.5 17.51 51.5 34.01 35 34.01 35 50.01 19 50.01 19 65.01 2 65.01 2 87.01 35 87.01 35 102.01 51 102.01 51 117.01 72 117.01 72 102.01 89 102.01 89 88.01 112 88.01 112 102.01 152 102.01 152 87.01 176 87.01 176 102.01 192 102.01 192 117.01 214 117.01 214 102.01 229 102.01 229 86.01 261 86.01 261 64.01 244 64.01 244 49.01 228 49.01 228 32.01 213 32.01 213 17.01 181 17.01 181 2.01 81.5 2.51"/>
  <g id="eyes">
    <rect x="52" y="52.01" width="17" height="17"/>
    <rect x="99.5" y="51.51" width="17" height="17"/>
    <rect x="146.5" y="51.51" width="17" height="17"/>
    <rect x="194.5" y="51.51" width="17" height="17"/>
  </g>
</svg>
