<svg id="alien4" xmlns="http://www.w3.org/2000/svg" viewBox="0 0 507.72 442.62"><title>alien5_yellow</title><polyline points="86.79 125.84 86.79 316.78 147.54 316.78 156.22 316.78 156.22 351.5 182.26 351.5 182.26 377.53 216.97 377.53 216.97 412.25 277.73 412.25 277.73 377.53 312.44 377.53 312.44 351.5 338.48 351.5 338.48 316.78 407.91 316.78 407.91 221.31 407.91 125.84 373.19 125.84 373.19 4.34 338.48 4.34 338.48 99.81 277.73 99.81 277.73 65.09 216.97 65.09 216.97 99.81 147.54 99.81 147.54 4.34 121.5 4.34 121.5 125.84 86.79 125.84" fill="#ff0" stroke="#000" stroke-miterlimit="10" stroke-width="8.68"/><rect x="282.06" y="34.72" width="26.04" height="26.04" stroke="#000" stroke-miterlimit="10" stroke-width="8.68"/><rect x="186.6" y="34.72" width="26.04" height="26.04" stroke="#000" stroke-miterlimit="10" stroke-width="8.68"/><rect x="416.59" y="21.7" width="26.04" height="95.47" stroke="#000" stroke-miterlimit="10" stroke-width="8.68"/><line x1="17.36" y1="251.69" x2="17.36" y2="347.16" stroke="#000" stroke-miterlimit="10" stroke-width="34.72"/><rect x="56.41" y="190.94" width="34.72" height="34.72"/><rect x="30.38" y="225.65" width="26.04" height="26.04"/><rect x="403.57" y="190.94" width="34.72" height="34.72"/><rect x="438.28" y="225.65" width="34.72" height="34.72"/><line x1="490.36" y1="260.37" x2="490.36" y2="355.83" stroke="#000" stroke-miterlimit="10" stroke-width="34.72"/><rect x="52.07" y="30.38" width="26.04" height="95.47" stroke="#000" stroke-miterlimit="10" stroke-width="8.68"/><line x1="420.93" y1="321.12" x2="420.93" y2="416.59" stroke="#000" stroke-miterlimit="10" stroke-width="34.72"/><line x1="73.77" y1="321.12" x2="73.77" y2="416.59" stroke="#000" stroke-miterlimit="10" stroke-width="34.72"/><rect x="91.13" y="416.59" width="26.04" height="26.04"/><rect x="377.53" y="416.59" width="26.04" height="26.04"/></svg>